<?xml version="1.0" standalone="no"?>
<!DOCTYPE svg PUBLIC "-//W3C//DTD SVG 20010904//EN"
 "http://www.w3.org/TR/2001/REC-SVG-20010904/DTD/svg10.dtd">
<svg version="1.0" xmlns="http://www.w3.org/2000/svg"
 width="512.000000pt" height="512.000000pt" viewBox="0 0 512.000000 512.000000"
 preserveAspectRatio="xMidYMid meet">
<metadata>
Created by potrace 1.14, written by Peter Selinger 2001-2017
</metadata>
<g transform="translate(0.000000,512.000000) scale(0.100000,-0.100000)"
fill="#000000" stroke="none">
<path d="M0 2677 c0 -2725 -6 -2493 71 -2581 22 -24 61 -55 87 -68 l47 -23
1433 -3 1432 -2 1 37 c0 21 0 885 1 1920 0 1390 -3 1895 -12 1931 -16 68 -74
141 -137 172 -29 14 -52 28 -52 31 -1 3 455 5 1012 5 l1012 0 56 26 c67 31
114 76 143 138 20 42 21 65 24 329 4 340 -1 365 -84 448 -91 91 165 83 -2596
83 l-2438 0 0 -2443z m2260 1409 c0 -5 -3 -7 -6 -3 -12 12 -89 -36 -132 -81
-71 -76 -73 -95 -75 -540 l-2 -387 -510 0 -510 0 -1 505 c-1 278 0 507 2 511
5 10 1234 6 1234 -5z m597 8 c-3 -3 -12 -4 -19 -1 -8 3 -5 6 6 6 11 1 17 -2
13 -5z m-809 -2555 c0 -280 -3 -510 -7 -510 -3 -1 -286 -3 -628 -4 -480 -1
-615 1 -589 10 82 29 140 82 178 164 20 44 21 59 22 447 l0 402 512 0 512 0 0
-509z"/>
<path d="M4374 3072 c-79 -10 -124 -26 -163 -57 -58 -46 -92 -98 -106 -160 -7
-35 -10 -436 -10 -1340 l1 -1290 26 -55 c33 -69 64 -102 125 -137 l48 -28 310
0 c308 0 310 0 357 24 57 29 98 71 130 131 l23 45 0 1330 c0 1265 -1 1332 -18
1368 -40 83 -124 150 -203 162 -39 7 -481 13 -520 7z"/>
</g>
</svg>
