<?xml version="1.0" standalone="no"?>
<!DOCTYPE svg PUBLIC "-//W3C//DTD SVG 20010904//EN"
 "http://www.w3.org/TR/2001/REC-SVG-20010904/DTD/svg10.dtd">
<svg version="1.0" xmlns="http://www.w3.org/2000/svg"
 width="513.000000pt" height="513.000000pt" viewBox="0 0 513.000000 513.000000"
 preserveAspectRatio="xMidYMid meet">
<metadata>
Created by potrace 1.14, written by Peter Selinger 2001-2017
</metadata>
<g transform="translate(0.000000,513.000000) scale(0.100000,-0.100000)"
fill="#000000" stroke="none">
<path d="M2379 5116 c-2 -2 -44 -7 -94 -11 -49 -3 -92 -8 -95 -10 -3 -2 -26
-6 -50 -10 -219 -31 -493 -121 -720 -234 -629 -315 -1091 -856 -1303 -1528
-81 -257 -112 -465 -112 -758 0 -195 7 -293 30 -425 21 -117 22 -123 46 -214
11 -45 22 -85 23 -91 11 -49 61 -185 114 -310 60 -143 197 -375 301 -510 137
-179 250 -294 469 -476 48 -41 211 -149 302 -201 239 -136 479 -228 741 -281
214 -44 291 -52 529 -52 177 1 283 6 365 20 116 20 207 38 250 50 28 8 61 16
75 19 120 22 544 204 611 262 8 8 19 14 23 14 14 0 186 121 282 198 398 320
689 751 844 1249 17 56 33 114 36 130 8 41 10 46 17 68 3 11 8 38 12 60 3 22
10 65 15 95 18 106 21 137 24 345 4 186 -7 362 -28 468 -3 12 -12 60 -21 106
-45 230 -156 521 -286 748 -186 324 -469 630 -764 828 -33 22 -62 43 -65 46
-20 23 -317 178 -422 220 -59 24 -215 78 -238 84 -8 2 -60 15 -115 29 -89 24
-133 32 -255 51 -19 3 -51 8 -70 11 -42 6 -465 15 -471 10z"/>
</g>
</svg>
