<svg width="35" height="24" viewBox="0 0 35 24" fill="none" xmlns="http://www.w3.org/2000/svg">
<path d="M26.2143 24H18.0714C17.5599 24 17.0694 23.7968 16.7077 23.4351C16.3461 23.0735 16.1429 22.5829 16.1429 22.0714V3.42857H11V11.7857C11 12.2972 10.7968 12.7877 10.4351 13.1494C10.0735 13.5111 9.58293 13.7143 9.07144 13.7143H1.57144C1.34411 13.7143 1.12609 13.624 0.965346 13.4632C0.8046 13.3025 0.714294 13.0845 0.714294 12.8571V11.1429C0.714294 10.9155 0.8046 10.6975 0.965346 10.5368C1.12609 10.376 1.34411 10.2857 1.57144 10.2857H7.57144V1.92857C7.57144 1.41708 7.77463 0.926543 8.1363 0.564865C8.49798 0.203188 8.98852 0 9.50001 0H17.6429C18.1544 0 18.6449 0.203188 19.0066 0.564865C19.3682 0.926543 19.5714 1.41708 19.5714 1.92857V20.5714H24.7143V12.2143C24.7143 11.7028 24.9175 11.2123 25.2792 10.8506C25.6408 10.4889 26.1314 10.2857 26.6429 10.2857H34.1429C34.3702 10.2857 34.5882 10.376 34.749 10.5368C34.9097 10.6975 35 10.9155 35 11.1429V12.8571C35 13.0845 34.9097 13.3025 34.749 13.4632C34.5882 13.624 34.3702 13.7143 34.1429 13.7143H28.1429V22.0714C28.1429 22.5829 27.9397 23.0735 27.578 23.4351C27.2163 23.7968 26.7258 24 26.2143 24Z" fill="white"/>
</svg>
