<svg width="23" height="22" viewBox="0 0 23 22" fill="none" xmlns="http://www.w3.org/2000/svg">
<path d="M7.59448 21.9375H2.90698C1.61304 21.9375 0.563232 20.8877 0.563232 19.5938V2.40625C0.563232 1.1123 1.61304 0.0625 2.90698 0.0625H7.59448C8.88843 0.0625 9.93823 1.1123 9.93823 2.40625V19.5938C9.93823 20.8877 8.88843 21.9375 7.59448 21.9375ZM22.4382 19.5938V2.40625C22.4382 1.1123 21.3884 0.0625 20.0945 0.0625H15.407C14.113 0.0625 13.0632 1.1123 13.0632 2.40625V19.5938C13.0632 20.8877 14.113 21.9375 15.407 21.9375H20.0945C21.3884 21.9375 22.4382 20.8877 22.4382 19.5938Z" fill="white"/>
</svg>
