<svg width="24" height="24" viewBox="0 0 24 24" fill="none" xmlns="http://www.w3.org/2000/svg">
<path d="M13.439 0.440574L7.87854 6.00043H1.49996C0.671233 6.00043 0 6.67166 0 7.50039V16.5002C0 17.3283 0.671233 18.0001 1.49996 18.0001H7.87854L13.439 23.5593C14.3784 24.4987 15.9996 23.8387 15.9996 22.4988V1.5018C15.9996 0.159956 14.3771 -0.496902 13.439 0.440574ZM21.1388 7.1954C20.4151 6.79978 19.502 7.0604 19.1008 7.78601C18.7014 8.51161 18.9658 9.42347 19.6914 9.82408C20.4982 10.2678 20.9995 11.1015 20.9995 12.0003C20.9995 12.899 20.4982 13.7327 19.692 14.1758C18.9664 14.5765 18.702 15.4883 19.1014 16.2139C19.5032 16.9426 20.417 17.2014 21.1394 16.8045C22.9038 15.8327 24 13.9921 24 11.9996C24 10.0072 22.9038 8.16725 21.1388 7.1954Z" fill="white"/>
</svg>
